<svg id="svg" xmlns="http://www.w3.org/2000/svg" xmlns:xlink="http://www.w3.org/1999/xlink" width="400" height="400" viewBox="0, 0, 400,400"><g id="svgg"><path id="path0" d="M113.890 48.643 C 59.949 60.381,42.048 125.697,82.247 164.102 C 99.786 180.859,119.227 185.516,163.333 183.526 C 208.652 181.480,226.203 186.545,225.809 201.555 C 225.463 214.763,223.283 215.210,155.333 216.000 L 98.000 216.667 89.704 220.499 C 80.482 224.759,70.051 234.753,65.483 243.706 C 63.034 248.506,59.346 266.457,60.559 267.670 C 61.631 268.742,207.294 267.854,216.129 266.721 C 236.625 264.095,249.047 255.619,269.594 230.240 C 288.969 206.308,275.732 156.256,246.269 142.034 C 225.301 131.914,223.095 131.599,167.385 130.750 L 118.103 130.000 115.013 125.413 C 109.104 116.640,109.394 111.061,116.157 103.358 L 120.276 98.667 170.805 98.667 C 204.723 98.667,221.333 99.120,221.333 100.046 C 221.333 100.922,223.666 101.116,227.732 100.576 C 258.913 96.440,305.287 141.039,314.570 184.091 C 322.713 221.852,293.806 270.313,248.805 294.343 C 245.890 295.900,241.219 296.570,233.001 296.610 C 226.585 296.641,221.335 297.117,221.334 297.667 C 221.334 298.217,185.058 298.667,140.721 298.667 L 60.109 298.667 59.721 325.000 C 59.508 339.483,59.333 351.333,59.333 351.333 C 59.333 351.333,99.833 351.009,149.333 350.612 C 260.262 349.724,257.413 350.229,299.756 323.919 C 304.183 321.169,331.067 293.723,335.931 286.990 C 368.813 241.466,372.583 173.395,344.890 125.219 C 334.555 107.238,336.594 109.870,318.667 91.363 C 292.896 64.758,263.529 51.493,222.667 48.000 C 199.607 46.029,123.846 46.477,113.890 48.643 " stroke="none" fill="#000000" fill-rule="evenodd"></path></g></svg>